<svg width="1920" height="1552" viewBox="0 0 1920 1552" fill="none" xmlns="http://www.w3.org/2000/svg">
<mask id="mask0_612_1933" style="mask-type:alpha" maskUnits="userSpaceOnUse" x="0" y="0" width="1920" height="1552">
<rect width="1920" height="1552" fill="#C4C4C4"/>
</mask>
<g mask="url(#mask0_612_1933)">
<path d="M637.5 -161.846C637.5 233.398 316.266 553.809 -80 553.809C-476.266 553.809 -797.5 233.398 -797.5 -161.846C-797.5 -557.089 -476.266 -877.5 -80 -877.5C316.266 -877.5 637.5 -557.089 637.5 -161.846Z" stroke="#E3E3E3"/>
<path d="M2711.5 -120.131C2711.5 336.259 2340.57 706.238 1883 706.238C1425.43 706.238 1054.5 336.259 1054.5 -120.131C1054.5 -576.521 1425.43 -946.5 1883 -946.5C2340.57 -946.5 2711.5 -576.521 2711.5 -120.131Z" stroke="#E3E3E3"/>
<path d="M2461.5 -120.133C2461.5 198.54 2202.5 456.878 1883 456.878C1563.5 456.878 1304.5 198.54 1304.5 -120.133C1304.5 -438.806 1563.5 -697.145 1883 -697.145C2202.5 -697.145 2461.5 -438.806 2461.5 -120.133Z" stroke="#E3E3E3"/>
</g>
</svg>
