<svg width="1400" height="705" viewBox="0 0 1400 705" fill="none" xmlns="http://www.w3.org/2000/svg">
<path d="M64.2907 93.8974C37.0267 54.0781 65.5394 0.000244141 113.798 0.000244141H1400V705H661.973C549.783 705 444.814 649.656 381.431 557.085L64.2907 93.8974Z" fill="#F9F8FF"/>
<path d="M64.2907 93.8974C37.0267 54.0781 65.5394 0.000244141 113.798 0.000244141H1400V705H661.973C549.783 705 444.814 649.656 381.431 557.085L64.2907 93.8974Z" fill="url(#paint0_linear_12_186)"/>
<mask id="mask0_12_186" style="mask-type:alpha" maskUnits="userSpaceOnUse" x="86" y="0" width="1314" height="705">
<path d="M96.5786 93.3263C69.9478 53.4565 98.5263 0 146.472 0H1400V705H686.913C573.339 705 467.265 648.291 404.183 553.848L96.5786 93.3263Z" fill="#F9F8FF"/>
</mask>
<g mask="url(#mask0_12_186)">
<ellipse cx="352.639" cy="362.155" rx="352.639" ry="362.155" transform="matrix(0.921551 -0.388257 0.364269 0.931294 382.503 -95.7184)" fill="url(#paint1_linear_12_186)" fill-opacity="0.44" style="mix-blend-mode:multiply"/>
<ellipse cx="326.378" cy="292.515" rx="326.378" ry="292.515" transform="matrix(0.246393 -0.96917 0.959913 0.280298 824.509 1053.72)" fill="url(#paint2_linear_12_186)" fill-opacity="0.42" style="mix-blend-mode:multiply"/>
</g>
<defs>
<linearGradient id="paint0_linear_12_186" x1="294.833" y1="0.00020916" x2="1400.8" y2="703.748" gradientUnits="userSpaceOnUse">
<stop stop-color="#684FFF"/>
<stop offset="0.715" stop-color="#A167FE"/>
<stop offset="1" stop-color="#B871FE"/>
</linearGradient>
<linearGradient id="paint1_linear_12_186" x1="352.639" y1="0" x2="352.639" y2="724.311" gradientUnits="userSpaceOnUse">
<stop stop-color="#684FFF"/>
<stop offset="1" stop-color="#FFF8F0" stop-opacity="0"/>
</linearGradient>
<linearGradient id="paint2_linear_12_186" x1="326.378" y1="0" x2="326.378" y2="585.03" gradientUnits="userSpaceOnUse">
<stop stop-color="#684FFF"/>
<stop offset="1" stop-color="#FFF8F0" stop-opacity="0"/>
</linearGradient>
</defs>
</svg>
