<svg width="2321" height="1292" viewBox="0 0 2321 1292" fill="none" xmlns="http://www.w3.org/2000/svg">
<path d="M1059.32 528.934C1059.32 820.382 822.446 1056.65 530.243 1056.65C238.041 1056.65 1.16602 820.382 1.16602 528.934C1.16602 237.486 238.041 1.21826 530.243 1.21826C822.446 1.21826 1059.32 237.486 1059.32 528.934Z" stroke="#E3E3E3"/>
<path d="M2319.83 682.124C2319.83 1018.67 2046.3 1291.5 1708.88 1291.5C1371.47 1291.5 1097.94 1018.67 1097.94 682.124C1097.94 345.576 1371.47 72.7483 1708.88 72.7483C2046.3 72.7483 2319.83 345.576 2319.83 682.124Z" stroke="#E3E3E3"/>
<path d="M2135.44 682.123C2135.44 917.095 1944.47 1107.58 1708.88 1107.58C1473.3 1107.58 1282.33 917.095 1282.33 682.123C1282.33 447.151 1473.3 256.666 1708.88 256.666C1944.47 256.666 2135.44 447.151 2135.44 682.123Z" stroke="#E3E3E3"/>
</svg>
