<svg width="15" height="20" viewBox="0 0 15 20" fill="none" xmlns="http://www.w3.org/2000/svg">
<path d="M2.56644 20.0003C2.29779 19.9997 2.03389 19.9122 1.80071 19.7465C1.27564 19.3769 0.949219 18.6596 0.949219 17.8808V2.11996C0.949219 1.33898 1.27564 0.623768 1.80071 0.254204C2.03945 0.08379 2.31065 -0.00384591 2.58598 0.000456282C2.86131 0.00475847 3.13066 0.100841 3.36587 0.278661L14.2108 8.34167C14.4368 8.51769 14.6232 8.76213 14.7523 9.05206C14.8815 9.34199 14.9492 9.66792 14.9492 9.99927C14.9492 10.3306 14.8815 10.6565 14.7523 10.9465C14.6232 11.2364 14.4368 11.4808 14.2108 11.6569L3.36412 19.722C3.12341 19.9028 2.84771 19.999 2.56644 20.0003Z" fill="white"/>
</svg>
